<?xml version="1.0" encoding="utf-8"?>
<!-- Generator: Adobe Illustrator 18.1.1, SVG Export Plug-In . SVG Version: 6.00 Build 0)  -->
<svg version="1.1" id="Capa_0" xmlns="http://www.w3.org/2000/svg" xmlns:xlink="http://www.w3.org/1999/xlink" x="0px" y="0px"
	 viewBox="0 0 104 104" enable-background="new 0 0 104 104" xml:space="preserve">
<circle id="circulo" fill="none" stroke="#BFBBBB" stroke-miterlimit="10" cx="52.1" cy="52.6" r="50.9"/>
<g>
	<path fill="#F4F4F4" d="M52.6,22.2c-17.2,0-31.1,13.9-31.1,31.1s13.9,31.1,31.1,31.1c0,0,0.1,0,0.1,0V22.2
		C52.7,22.2,52.7,22.2,52.6,22.2z">


  <animate attributeName="fill"  dur="5s" values="lightgray;darkred" repeatCount="indefinite"/>
 <animateTransform attributeType="XML" attributeName="transform"
 	 dur="1s"	
     repeatCount="indefinite"/>    


 </path>

	<path fill="#F4F4F4" d="M83.7,53.3c0-17.1-13.9-31-31-31.1v62.1C69.9,84.3,83.7,70.4,83.7,53.3z">
  <animate attributeName="fill"  dur="5s" values="lightgray;darkred" repeatCount="indefinite"/>
 <animateTransform attributeType="XML" attributeName="transform"

	   dur="1s"	
     repeatCount="indefinite"/>    


 </path>


	<path fill="#7EB7B7" d="M81.7,42l-1.6,0l-0.8-0.9l-0.2-1.4l-0.8,0.5l-0.4,1.8l-1.2-1.3l0-1.2l-1.2-1L75,38h-1.3l0.4,1.2l1.6,0.9
		l0.3,0.3l-0.4,0.2l0,1l-0.8,0.3l-0.7-0.1l-0.4-0.6l1.1,0.1l0.3-0.4l-2.4-1.6l-0.2-0.7l-1,0.9l-1-0.2l-1.5,2l-0.3,0.8l-1,0.1l-1.4,0
		l-0.9-0.4l-0.3-1.7l0.3-0.8l1.5-0.3l1.6,0.3l0.2-0.9L68,38l0.2-1.4l1.6-0.3l1.1-1.6l1.2-0.2l1,0.2h0.4l-0.2-1.5l-1.3,0.5l-0.4-1.1
		l-0.7-0.1l-0.1-0.8l0.6-0.7l1.4-0.6l0.4-0.7c-5.5-4.8-12.6-7.8-20.5-7.8v5.6l0.6,0.3v1.1l0.9,0.2l-0.5,0.9h-1.1v4.1l0.6,0.4
		l-0.1,1.1L52.7,36v0.8l0.9,0.4l0,0.7l-0.4,0c0,0,0,0,0,0l-0.5-0.1v20.9l0.8,0.3l2.7,0l0.8,1.3l1.2,0.4L58,61.7l-1.3,1.7l-0.4,3.7
		l-1.2,1l-1.8-0.1l-0.6,1v0l0.4,1.9l-0.4,0.6v12.8c9.7,0,18.4-4.5,24.1-11.5h-1v-2.1l-1.2-1.6v-2.5l-0.9-0.9l-0.1-1l1.2-2.2
		l-2.2-3.9l0.3-2.6l-2-0.2l-0.7-0.7h-1.3l-0.7,0.6h-2.3L65.7,56h-1.3l-3-3.4l0-2.6l0.5-0.2l0.2-1h-0.7l-0.3-1.1l3.4-2.5v-1.8
		l1.7-0.9l0.7,0.1h1.4l1.1-0.6l3.5-0.3v1.8l2.8,0.7l0.5,0.4h0.5v-1l1.6-0.2l1.5,1.1h2.5l0.2-0.2C82.3,43.7,82,42.8,81.7,42z
		 M67,33.2l0.3-0.4l1-0.2l0.3,1.2l0.5,0.9l0.4,0.4l0.7,0.3l-0.6,0.7l-1.2,0.1h-0.9l0.1-1.1l0.8-0.2l-0.1-0.5L67.5,34L67,33.7V33.2z
		 M65.3,35.1l0.6-1l0.8-0.2l0.6,0.3l-0.1,0.7L66,35.8h-0.7V35.1z"/>
	<polygon fill="#004346" points="52.7,69.1 52.7,69.1 52.7,69.1 	"/>
	<path fill="#76A5A4" d="M51.2,73.5l-0.6,1.1l-1.8,0.9l-1.2,0.2l-0.1,0.5l0.9,0.2L48.3,77l-0.8,0.7l0.5,0.6l0.9,0l-0.1,0.7l-0.2,0.7
		l-0.1,0.6l1.4,1.1l-0.2,0.6l-1.9,0L46,80.5l-1.4-2.5l0.2-2.4l-1.1-1.4l0.4-2.5l-0.6-0.2v-5.3c0,0-1.8-1.4-1.9-1.4
		c-0.1,0-1-0.2-1-0.2l-0.2-1l-2.4-2.9l0.2-1.1l0.1-1.7l1.6-1.1l-0.2-1.9l-2.4-0.2l-1.9-2.1L34.2,52l-0.9-0.2l0.1-0.8l-1.1-0.2v0.4
		l-2.7-0.7L28.6,49l0.4-0.8l-1.7-2.5L27,43.9h-0.7l0.2,1.8l1.2,1.8l-0.1,0.7l-1-0.2l-1.2-2.1v-2.5L24,42.9v-1.8
		c-1.6,3.7-2.5,7.9-2.5,12.2c0,17.2,14,31.1,31.1,31.1c0,0,0,0,0.1,0V71.6L51.2,73.5z"/>
	<path fill="#76A5A4" d="M51.5,37.4l-0.1-0.6h0l0.5-0.3V36l-0.5-0.1l-0.1,0.5l-1,0.1l-0.1,0v0l-0.3,0.1L49.6,36l-0.3-0.1h-0.7
		l-0.3,0.3v0.6l0.6,0.2l0.6,0.1L49.3,37l-0.5,0.6l-0.2-0.3l-0.5-0.1l-1.4,1.3l0.2,0.1l-2,1.1l-1.9,2l-0.1,0.9l-1.9,1.3l-0.9,1
		l0.1,1.9l-1.3-0.6l0-1.1L35,45l-1.9,1l-0.8,1.5L32,48.7l0.5,1.2L34,50l2.4-1.6l0.2,0.8l-0.7,1.4l1.8,0.3l0.2,2.8l2.5,0.4l1.6-1.8
		l1.9,0.4l0.7,0.9l1.8-0.1l0.1-0.5l1,0.5l1.1,1.8l2,0l0.7,1.3l0.1,1.6l1.4,0.5V37.8L51.5,37.4z M48.4,38.9L47.8,39l0-0.4l0.3-0.4
		l0.4,0.3L48.4,38.9z M50.7,38.1l-0.4,0l-0.1,0.4l-0.3,0.2l-0.5,0c0-0.1,0-0.2,0-0.2H49v-0.5h0.9l0.2-0.5l0.4,0l0.4,0.1L50.7,38.1z"
		/>
	<path fill="#76A5A4" d="M52.7,22.1c-6.8,0-13.1,2.2-18.3,6l1.6,0l0.7,0.4l1.3,0.3l0.1,0.5l2.1,0.1l-0.3-0.7L38,28.6l0.4-0.4
		l-0.2-0.5h-1.7l1.8-1.4h1.8l0.8,1.1l1.4,0.1l0.8-0.8l0.6,0.3l-1.1,1.1c0,0-1.6,0-1.5,0c0.1,0,0.1,1.1,0.1,1.1l1.9-0.1l0.2-0.5
		l1.3-0.1l0.2-0.8l-0.8-0.1l0.3-0.7l0.6-0.2l2.1,0.1L46,28l0.2,0.8l1.2,0.2l-0.1-1.4l1.1-0.6l2-0.2l2.3,1L52.7,22.1
		C52.7,22.1,52.7,22.1,52.7,22.1z"/>
	<polygon fill="#76A5A4" points="52.5,30.2 52.1,31.2 49.1,30.5 51.4,29.3 50.5,28.5 48.5,28.8 48.3,28.9 48.3,28.9 48.3,29 
		47.7,29.6 46.7,29.7 46.8,30.2 47.1,30.3 47.1,30.5 46.3,30.6 46.3,31 45.5,31.1 45.4,30.2 44,30.6 41.3,32.2 41.6,33.3 42.3,33.9 
		43.9,34.1 43.9,35.8 44.6,35.7 45.3,34.3 46.9,33.8 46.9,31.7 47.8,31 50,31.5 49.9,32.9 50.5,32.9 52.1,32.1 52.2,34 52.7,34.3 
		52.7,30.2 	"/>
	<polygon fill="#76A5A4" points="52.2,36.2 52.3,36.5 52.7,36.7 52.7,36 	"/>
</g>
</svg>
