<?xml version="1.0" encoding="utf-8"?>
<!-- Generator: Adobe Illustrator 18.1.1, SVG Export Plug-In . SVG Version: 6.00 Build 0)  -->
<svg version="1.1" id="Capa_0" xmlns="http://www.w3.org/2000/svg" xmlns:xlink="http://www.w3.org/1999/xlink" x="0px" y="0px"
	 viewBox="0 0 104 104" enable-background="new 0 0 104 104" xml:space="preserve">
<circle id="circulo" fill="none" stroke="#BFBBBB" stroke-miterlimit="10" cx="52.1" cy="52.6" r="50.9"/>
<g>
	<g>
		<path id="cable_8_" fill="#E5E5E6" d="M57.5,59.9h27.1c0.6,0,1.1,0.5,1.1,1.1c0,0.6-0.5,1.1-1.1,1.1h-5.4c-0.6,0-1.1,0.5-1.1,1.1
			c0,0.6,0,6.1,0,6.1h0.5c0,0,0-5.8,0-6.1c0-0.3,0.3-0.6,0.6-0.6h5.4c0.8,0,1.5-0.7,1.5-1.5c0-0.8-0.7-1.5-1.5-1.5l-27.1,0"/>
	</g>
</g>
<g id="mou">
	<path fill="#E5E5E6" d="M78.9,68.8c1.2,0,2.1,0.9,2.1,2.1v5c0,1.2-0.9,2.1-2.1,2.1h-0.6v-9.2H78.9z"/>
	<path fill="#E5E5E6" d="M77.7,68.8h0.6V78h-0.6c-1.2,0-2.1-0.9-2.1-2.1v-5C75.6,69.7,76.6,68.8,77.7,68.8z"/>
</g>
<g>
	<path fill="#253A54" d="M79,71v0.5c0,0.4-0.3,0.7-0.7,0.7v-1.9C78.7,70.3,79,70.6,79,71z"/>
	<path fill="#223341" d="M78.3,70.3L78.3,70.3v1.9l0,0c-0.4,0-0.7-0.3-0.7-0.7V71C77.6,70.6,77.9,70.3,78.3,70.3z"/>
</g>
<g id="compu">
	<path fill="#AEADB3" d="M45,53.4c-0.5,1.9-0.9,3.7-1.4,5.6c4.2,0,8.5,0,12.7,0c-0.5-1.9-0.9-3.7-1.4-5.6
		C51.7,53.4,48.3,53.4,45,53.4z"/>
	<path fill="#C2C3C9" d="M49.9,59c2.1,0,4.3,0,6.4,0c-0.5-1.9-0.9-3.7-1.4-5.6c-1.7,0-3.4,0-5.1,0V59z"/>
	<path fill="#E5E5E6" d="M57.1,58.9H42.9c-0.4,0-0.7,0.3-0.7,0.8V60h15.6v-0.3C57.8,59.2,57.5,58.9,57.1,58.9z"/>
	<path fill="#E5E5E6" d="M28.5,51.3v3.1c0,0.6,0.5,1.1,1.1,1.1h40.8c0.6,0,1.1-0.5,1.1-1.1v-3.1H28.5z"/>
	<path fill="#264860" d="M71.5,51.3v-26c0-0.6-0.5-1.1-1.1-1.1H29.6c-0.6,0-1.1,0.5-1.1,1.1v26H71.5z"/>
</g>
<rect id="pantalla" x="30.3" y="25.9" fill="#DBFCF8" width="39.4" height="23.6">

	<animate id="animation1"
             attributeName="opacity"
             from="1" to="0" dur="6s"
            begin="2s;anskljdf.end" 
            repeatCount="indefinite"/>
        </rect>
<g id="teclado">
	<path fill="#AEADB3" d="M70.2,64.1c0-0.3-0.2-0.5-0.5-0.5H30.3c-0.3,0-0.5,0.2-0.5,0.5v14.4c0,0.3,0.2,0.5,0.5,0.5h39.3
		c0.3,0,0.5-0.2,0.5-0.5V64.1z"/>
	<path fill="#C2C3C9" d="M70.2,78.5V64.1c0-0.3-0.2-0.5-0.5-0.5H41.4L61.8,79h7.9C69.9,79,70.2,78.8,70.2,78.5z"/>
	<g>
		<g>
			<path fill="#FFFFFF" d="M33,66.9c0,0.1-0.1,0.1-0.1,0.1H31c-0.1,0-0.1-0.1-0.1-0.1V65c0-0.1,0.1-0.1,0.1-0.1h1.9
				c0.1,0,0.1,0.1,0.1,0.1V66.9z"/>
			<path fill="#FFFFFF" d="M37,69.6c0,0.1-0.1,0.1-0.1,0.1H35c-0.1,0-0.1-0.1-0.1-0.1v-1.9c0-0.1,0.1-0.1,0.1-0.1h1.9
				c0.1,0,0.1,0.1,0.1,0.1V69.6z"/>
			<path fill="#FFFFFF" d="M37.7,72.3c0,0.1-0.1,0.1-0.1,0.1h-1.9c-0.1,0-0.1-0.1-0.1-0.1v-1.9c0-0.1,0.1-0.1,0.1-0.1h1.9
				c0.1,0,0.1,0.1,0.1,0.1V72.3z"/>
			<path fill="#FFFFFF" d="M36.4,75c0,0.1-0.1,0.1-0.1,0.1h-1.9c-0.1,0-0.1-0.1-0.1-0.1V73c0-0.1,0.1-0.1,0.1-0.1h1.9
				c0.1,0,0.1,0.1,0.1,0.1V75z"/>
			<path fill="#FFFFFF" d="M33,78c0,0.1-0.1,0.1-0.1,0.1H31c-0.1,0-0.1-0.1-0.1-0.1v-2.3c0-0.1,0.1-0.1,0.1-0.1h1.9
				c0.1,0,0.1,0.1,0.1,0.1V78z"/>
			<path fill="#FFFFFF" d="M35.7,78c0,0.1-0.1,0.1-0.1,0.1h-1.9c-0.1,0-0.1-0.1-0.1-0.1v-2.3c0-0.1,0.1-0.1,0.1-0.1h1.9
				c0.1,0,0.1,0.1,0.1,0.1V78z"/>
			<path fill="#FFFFFF" d="M38.4,78c0,0.1-0.1,0.1-0.1,0.1h-1.9c-0.1,0-0.1-0.1-0.1-0.1v-2.3c0-0.1,0.1-0.1,0.1-0.1h1.9
				c0.1,0,0.1,0.1,0.1,0.1V78z"/>
			<path fill="#FFFFFF" d="M61.1,78c0,0.1-0.1,0.1-0.1,0.1h-1.9c-0.1,0-0.1-0.1-0.1-0.1v-2.3c0-0.1,0.1-0.1,0.1-0.1H61
				c0.1,0,0.1,0.1,0.1,0.1V78z"/>
			<path fill="#FFFFFF" d="M63.8,78c0,0.1-0.1,0.1-0.1,0.1h-1.9c-0.1,0-0.1-0.1-0.1-0.1v-1c0-0.1,0.1-0.1,0.1-0.1h1.9
				c0.1,0,0.1,0.1,0.1,0.1V78z"/>
			<path fill="#FFFFFF" d="M69.2,78c0,0.1-0.1,0.1-0.1,0.1h-1.9C67,78.1,67,78.1,67,78v-1c0-0.1,0.1-0.1,0.1-0.1H69
				c0.1,0,0.1,0.1,0.1,0.1V78z"/>
			<path fill="#FFFFFF" d="M41.7,78c0,0.1-0.1,0.1-0.1,0.1H39c-0.1,0-0.1-0.1-0.1-0.1v-2.3c0-0.1,0.1-0.1,0.1-0.1h2.6
				c0.1,0,0.1,0.1,0.1,0.1V78z"/>
			<path fill="#FFFFFF" d="M58.5,78c0,0.1-0.1,0.1-0.1,0.1h-2.6c-0.1,0-0.1-0.1-0.1-0.1v-2.3c0-0.1,0.1-0.1,0.1-0.1h2.6
				c0.1,0,0.1,0.1,0.1,0.1V78z"/>
			<path fill="#FFFFFF" d="M55.1,78c0,0.1-0.1,0.1-0.1,0.1H42.3c-0.1,0-0.1-0.1-0.1-0.1v-2.3c0-0.1,0.1-0.1,0.1-0.1H55
				c0.1,0,0.1,0.1,0.1,0.1V78z"/>
			<path fill="#FFFFFF" d="M39,75c0,0.1-0.1,0.1-0.1,0.1H37c-0.1,0-0.1-0.1-0.1-0.1V73c0-0.1,0.1-0.1,0.1-0.1h1.9
				C39,72.9,39,73,39,73V75z"/>
			<path fill="#FFFFFF" d="M41.7,75c0,0.1-0.1,0.1-0.1,0.1h-1.9c-0.1,0-0.1-0.1-0.1-0.1V73c0-0.1,0.1-0.1,0.1-0.1h1.9
				c0.1,0,0.1,0.1,0.1,0.1V75z"/>
			<path fill="#FFFFFF" d="M44.4,75c0,0.1-0.1,0.1-0.1,0.1h-1.9c-0.1,0-0.1-0.1-0.1-0.1V73c0-0.1,0.1-0.1,0.1-0.1h1.9
				c0.1,0,0.1,0.1,0.1,0.1V75z"/>
			<path fill="#FFFFFF" d="M47.1,75c0,0.1-0.1,0.1-0.1,0.1H45c-0.1,0-0.1-0.1-0.1-0.1V73c0-0.1,0.1-0.1,0.1-0.1h1.9
				c0.1,0,0.1,0.1,0.1,0.1V75z"/>
			<path fill="#FFFFFF" d="M49.7,75c0,0.1-0.1,0.1-0.1,0.1h-1.9c-0.1,0-0.1-0.1-0.1-0.1V73c0-0.1,0.1-0.1,0.1-0.1h1.9
				c0.1,0,0.1,0.1,0.1,0.1V75z"/>
			<path fill="#FFFFFF" d="M52.4,75c0,0.1-0.1,0.1-0.1,0.1h-1.9c-0.1,0-0.1-0.1-0.1-0.1V73c0-0.1,0.1-0.1,0.1-0.1h1.9
				c0.1,0,0.1,0.1,0.1,0.1V75z"/>
			<path fill="#FFFFFF" d="M55.1,75c0,0.1-0.1,0.1-0.1,0.1H53c-0.1,0-0.1-0.1-0.1-0.1V73c0-0.1,0.1-0.1,0.1-0.1H55
				c0.1,0,0.1,0.1,0.1,0.1V75z"/>
			<path fill="#FFFFFF" d="M57.8,75c0,0.1-0.1,0.1-0.1,0.1h-1.9c-0.1,0-0.1-0.1-0.1-0.1V73c0-0.1,0.1-0.1,0.1-0.1h1.9
				c0.1,0,0.1,0.1,0.1,0.1V75z"/>
			<path fill="#FFFFFF" d="M60.4,75c0,0.1-0.1,0.1-0.1,0.1h-1.9c-0.1,0-0.1-0.1-0.1-0.1V73c0-0.1,0.1-0.1,0.1-0.1h1.9
				c0.1,0,0.1,0.1,0.1,0.1V75z"/>
			<path fill="#FFFFFF" d="M63.1,75c0,0.1-0.1,0.1-0.1,0.1H61c-0.1,0-0.1-0.1-0.1-0.1V73c0-0.1,0.1-0.1,0.1-0.1H63
				c0.1,0,0.1,0.1,0.1,0.1V75z"/>
			<path fill="#FFFFFF" d="M69.1,75c0,0.1-0.1,0.1-0.1,0.1h-5.3c-0.1,0-0.1-0.1-0.1-0.1V73c0-0.1,0.1-0.1,0.1-0.1H69
				c0.1,0,0.1,0.1,0.1,0.1V75z"/>
			<path fill="#FFFFFF" d="M40.4,72.3c0,0.1-0.1,0.1-0.1,0.1h-1.9c-0.1,0-0.1-0.1-0.1-0.1v-1.9c0-0.1,0.1-0.1,0.1-0.1h1.9
				c0.1,0,0.1,0.1,0.1,0.1V72.3z"/>
			<path fill="#FFFFFF" d="M43,72.3c0,0.1-0.1,0.1-0.1,0.1H41c-0.1,0-0.1-0.1-0.1-0.1v-1.9c0-0.1,0.1-0.1,0.1-0.1h1.9
				c0.1,0,0.1,0.1,0.1,0.1V72.3z"/>
			<path fill="#FFFFFF" d="M45.7,72.3c0,0.1-0.1,0.1-0.1,0.1h-1.9c-0.1,0-0.1-0.1-0.1-0.1v-1.9c0-0.1,0.1-0.1,0.1-0.1h1.9
				c0.1,0,0.1,0.1,0.1,0.1V72.3z"/>
			<path fill="#FFFFFF" d="M48.4,72.3c0,0.1-0.1,0.1-0.1,0.1h-1.9c-0.1,0-0.1-0.1-0.1-0.1v-1.9c0-0.1,0.1-0.1,0.1-0.1h1.9
				c0.1,0,0.1,0.1,0.1,0.1V72.3z"/>
			<path fill="#FFFFFF" d="M51.1,72.3c0,0.1-0.1,0.1-0.1,0.1H49c-0.1,0-0.1-0.1-0.1-0.1v-1.9c0-0.1,0.1-0.1,0.1-0.1h1.9
				c0.1,0,0.1,0.1,0.1,0.1V72.3z"/>
			<path fill="#FFFFFF" d="M53.7,72.3c0,0.1-0.1,0.1-0.1,0.1h-1.9c-0.1,0-0.1-0.1-0.1-0.1v-1.9c0-0.1,0.1-0.1,0.1-0.1h1.9
				c0.1,0,0.1,0.1,0.1,0.1V72.3z"/>
			<path fill="#FFFFFF" d="M56.4,72.3c0,0.1-0.1,0.1-0.1,0.1h-1.9c-0.1,0-0.1-0.1-0.1-0.1v-1.9c0-0.1,0.1-0.1,0.1-0.1h1.9
				c0.1,0,0.1,0.1,0.1,0.1V72.3z"/>
			<path fill="#FFFFFF" d="M59.1,72.3c0,0.1-0.1,0.1-0.1,0.1H57c-0.1,0-0.1-0.1-0.1-0.1v-1.9c0-0.1,0.1-0.1,0.1-0.1H59
				c0.1,0,0.1,0.1,0.1,0.1V72.3z"/>
			<path fill="#FFFFFF" d="M61.8,72.3c0,0.1-0.1,0.1-0.1,0.1h-1.9c-0.1,0-0.1-0.1-0.1-0.1v-1.9c0-0.1,0.1-0.1,0.1-0.1h1.9
				c0.1,0,0.1,0.1,0.1,0.1V72.3z"/>
			<path fill="#FFFFFF" d="M64.4,72.3c0,0.1-0.1,0.1-0.1,0.1h-1.9c-0.1,0-0.1-0.1-0.1-0.1v-1.9c0-0.1,0.1-0.1,0.1-0.1h1.9
				c0.1,0,0.1,0.1,0.1,0.1V72.3z"/>
			<path fill="#FFFFFF" d="M67.1,72.3c0,0.1-0.1,0.1-0.1,0.1H65c-0.1,0-0.1-0.1-0.1-0.1v-1.9c0-0.1,0.1-0.1,0.1-0.1H67
				c0.1,0,0.1,0.1,0.1,0.1V72.3z"/>
			<path fill="#FFFFFF" d="M39.7,69.6c0,0.1-0.1,0.1-0.1,0.1h-1.9c-0.1,0-0.1-0.1-0.1-0.1v-1.9c0-0.1,0.1-0.1,0.1-0.1h1.9
				c0.1,0,0.1,0.1,0.1,0.1V69.6z"/>
			<path fill="#FFFFFF" d="M42.4,69.6c0,0.1-0.1,0.1-0.1,0.1h-1.9c-0.1,0-0.1-0.1-0.1-0.1v-1.9c0-0.1,0.1-0.1,0.1-0.1h1.9
				c0.1,0,0.1,0.1,0.1,0.1V69.6z"/>
			<path fill="#FFFFFF" d="M45.1,69.6c0,0.1-0.1,0.1-0.1,0.1H43c-0.1,0-0.1-0.1-0.1-0.1v-1.9c0-0.1,0.1-0.1,0.1-0.1h1.9
				c0.1,0,0.1,0.1,0.1,0.1V69.6z"/>
			<path fill="#FFFFFF" d="M47.7,69.6c0,0.1-0.1,0.1-0.1,0.1h-1.9c-0.1,0-0.1-0.1-0.1-0.1v-1.9c0-0.1,0.1-0.1,0.1-0.1h1.9
				c0.1,0,0.1,0.1,0.1,0.1V69.6z"/>
			<path fill="#FFFFFF" d="M50.4,69.6c0,0.1-0.1,0.1-0.1,0.1h-1.9c-0.1,0-0.1-0.1-0.1-0.1v-1.9c0-0.1,0.1-0.1,0.1-0.1h1.9
				c0.1,0,0.1,0.1,0.1,0.1V69.6z"/>
			<path fill="#FFFFFF" d="M53.1,69.6c0,0.1-0.1,0.1-0.1,0.1H51c-0.1,0-0.1-0.1-0.1-0.1v-1.9c0-0.1,0.1-0.1,0.1-0.1H53
				c0.1,0,0.1,0.1,0.1,0.1V69.6z"/>
			<path fill="#FFFFFF" d="M55.8,69.6c0,0.1-0.1,0.1-0.1,0.1h-1.9c-0.1,0-0.1-0.1-0.1-0.1v-1.9c0-0.1,0.1-0.1,0.1-0.1h1.9
				c0.1,0,0.1,0.1,0.1,0.1V69.6z"/>
			<path fill="#FFFFFF" d="M58.4,69.6c0,0.1-0.1,0.1-0.1,0.1h-1.9c-0.1,0-0.1-0.1-0.1-0.1v-1.9c0-0.1,0.1-0.1,0.1-0.1h1.9
				c0.1,0,0.1,0.1,0.1,0.1V69.6z"/>
			<path fill="#FFFFFF" d="M61.1,69.6c0,0.1-0.1,0.1-0.1,0.1H59c-0.1,0-0.1-0.1-0.1-0.1v-1.9c0-0.1,0.1-0.1,0.1-0.1H61
				c0.1,0,0.1,0.1,0.1,0.1V69.6z"/>
			<path fill="#FFFFFF" d="M63.8,69.6c0,0.1-0.1,0.1-0.1,0.1h-1.9c-0.1,0-0.1-0.1-0.1-0.1v-1.9c0-0.1,0.1-0.1,0.1-0.1h1.9
				c0.1,0,0.1,0.1,0.1,0.1V69.6z"/>
			<path fill="#FFFFFF" d="M66.5,69.6c0,0.1-0.1,0.1-0.1,0.1h-1.9c-0.1,0-0.1-0.1-0.1-0.1v-1.9c0-0.1,0.1-0.1,0.1-0.1h1.9
				c0.1,0,0.1,0.1,0.1,0.1V69.6z"/>
			<path fill="#FFFFFF" d="M34.4,69.6c0,0.1-0.1,0.1-0.1,0.1H31c-0.1,0-0.1-0.1-0.1-0.1v-1.9c0-0.1,0.1-0.1,0.1-0.1h3.3
				c0.1,0,0.1,0.1,0.1,0.1V69.6z"/>
			<path fill="#FFFFFF" d="M69.1,66.9c0,0.1-0.1,0.1-0.1,0.1h-3.3c-0.1,0-0.1-0.1-0.1-0.1V65c0-0.1,0.1-0.1,0.1-0.1H69
				c0.1,0,0.1,0.1,0.1,0.1V66.9z"/>
			<path fill="#FFFFFF" d="M35,72.3c0,0.1-0.1,0.1-0.1,0.1H31c-0.1,0-0.1-0.1-0.1-0.1v-1.9c0-0.1,0.1-0.1,0.1-0.1h3.9
				c0.1,0,0.1,0.1,0.1,0.1V72.3z"/>
			<path fill="#FFFFFF" d="M33.7,75c0,0.1-0.1,0.1-0.1,0.1H31c-0.1,0-0.1-0.1-0.1-0.1V73c0-0.1,0.1-0.1,0.1-0.1h2.6
				c0.1,0,0.1,0.1,0.1,0.1V75z"/>
			<path fill="#FFFFFF" d="M35.7,66.9c0,0.1-0.1,0.1-0.1,0.1h-1.9c-0.1,0-0.1-0.1-0.1-0.1V65c0-0.1,0.1-0.1,0.1-0.1h1.9
				c0.1,0,0.1,0.1,0.1,0.1V66.9z"/>
			<path fill="#FFFFFF" d="M38.4,66.9c0,0.1-0.1,0.1-0.1,0.1h-1.9c-0.1,0-0.1-0.1-0.1-0.1V65c0-0.1,0.1-0.1,0.1-0.1h1.9
				c0.1,0,0.1,0.1,0.1,0.1V66.9z"/>
			<path fill="#FFFFFF" d="M41,66.9c0,0.1-0.1,0.1-0.1,0.1H39c-0.1,0-0.1-0.1-0.1-0.1V65c0-0.1,0.1-0.1,0.1-0.1h1.9
				c0.1,0,0.1,0.1,0.1,0.1V66.9z"/>
			<path fill="#FFFFFF" d="M43.7,66.9c0,0.1-0.1,0.1-0.1,0.1h-1.9c-0.1,0-0.1-0.1-0.1-0.1V65c0-0.1,0.1-0.1,0.1-0.1h1.9
				c0.1,0,0.1,0.1,0.1,0.1V66.9z"/>
			<path fill="#FFFFFF" d="M46.4,66.9c0,0.1-0.1,0.1-0.1,0.1h-1.9c-0.1,0-0.1-0.1-0.1-0.1V65c0-0.1,0.1-0.1,0.1-0.1h1.9
				c0.1,0,0.1,0.1,0.1,0.1V66.9z"/>
			<path fill="#FFFFFF" d="M49.1,66.9c0,0.1-0.1,0.1-0.1,0.1H47c-0.1,0-0.1-0.1-0.1-0.1V65c0-0.1,0.1-0.1,0.1-0.1h1.9
				c0.1,0,0.1,0.1,0.1,0.1V66.9z"/>
			<path fill="#FFFFFF" d="M51.7,66.9c0,0.1-0.1,0.1-0.1,0.1h-1.9c-0.1,0-0.1-0.1-0.1-0.1V65c0-0.1,0.1-0.1,0.1-0.1h1.9
				c0.1,0,0.1,0.1,0.1,0.1V66.9z"/>
			<path fill="#FFFFFF" d="M54.4,66.9c0,0.1-0.1,0.1-0.1,0.1h-1.9c-0.1,0-0.1-0.1-0.1-0.1V65c0-0.1,0.1-0.1,0.1-0.1h1.9
				c0.1,0,0.1,0.1,0.1,0.1V66.9z"/>
			<path fill="#FFFFFF" d="M57.1,66.9c0,0.1-0.1,0.1-0.1,0.1H55c-0.1,0-0.1-0.1-0.1-0.1V65c0-0.1,0.1-0.1,0.1-0.1H57
				c0.1,0,0.1,0.1,0.1,0.1V66.9z"/>
			<path fill="#FFFFFF" d="M59.8,66.9c0,0.1-0.1,0.1-0.1,0.1h-1.9c-0.1,0-0.1-0.1-0.1-0.1V65c0-0.1,0.1-0.1,0.1-0.1h1.9
				c0.1,0,0.1,0.1,0.1,0.1V66.9z"/>
			<path fill="#FFFFFF" d="M62.4,66.9c0,0.1-0.1,0.1-0.1,0.1h-1.9c-0.1,0-0.1-0.1-0.1-0.1V65c0-0.1,0.1-0.1,0.1-0.1h1.9
				c0.1,0,0.1,0.1,0.1,0.1V66.9z"/>
			<path fill="#FFFFFF" d="M65.1,66.9c0,0.1-0.1,0.1-0.1,0.1H63c-0.1,0-0.1-0.1-0.1-0.1V65c0-0.1,0.1-0.1,0.1-0.1H65
				c0.1,0,0.1,0.1,0.1,0.1V66.9z"/>
			<g>
				<path fill="#FFFFFF" d="M64.3,76.9V78c0,0,0,0.1,0,0.1c0,0,0.1,0,0.1,0h1.9c0,0,0.1,0,0.1,0c0,0,0-0.1,0-0.1v-1.1H64.3z"/>
				<path fill="#FFFFFF" d="M66.5,76.8v-1.1c0,0,0-0.1,0-0.1c0,0-0.1,0-0.1,0h-1.9c0,0-0.1,0-0.1,0c0,0,0,0.1,0,0.1v1.1H66.5z"/>
			</g>
			<path fill="#FFFFFF" d="M67.1,67.6C67,67.6,67,67.6,67.1,67.6c-0.1,0.1-0.1,0.1-0.1,0.1v1.9c0,0,0,0.1,0,0.1c0,0,0.1,0,0.1,0h0.5
				v2.5c0,0,0,0.1,0,0.1c0,0,0.1,0,0.1,0H69c0,0,0.1,0,0.1,0c0,0,0-0.1,0-0.1v-4.6c0,0,0-0.1,0-0.1c0,0-0.1,0-0.1,0H67.1z"/>
		</g>
	</g>
</g>





<circle fill="#264860" cx="60.7" cy="59.6" r="0.4">


	<animateTransform id="anim2"  begin="1s" attributeName="transform" attributeType="XML" type="translate"   values="0,0;25,0;25,3;18,3;18,9"  rotate="auto"  dur="2s"  repeatCount="indefinite"/>

		<animate id="anim2"/>
	</circle>

<circle fill="#264860" cx="60.7" cy="59.6" r="0.4">
<animateTransform id="anim2"   begin="2s" attributeName="transform" attributeType="XML" type="translate"   values="0,0;25,0;25,3;18,3;18,9"  rotate="auto"  dur="2s"  repeatCount="indefinite"/>

		<animate id="anim2"/>
	</circle>

<circle fill="#264860" cx="60.7" cy="59.6" r="0.8">
<animateTransform id="anim2"  begin="3s" attributeName="transform" attributeType="XML" type="translate"   values="0,0;25,0;25,3;18,3;18,9"  rotate="auto"  dur="2s"  repeatCount="indefinite"/>

		<animate id="anim2"/>
	
	</circle>


<g>
	<g>
		<linearGradient id="SVGID_1_" gradientUnits="userSpaceOnUse" x1="47.9903" y1="43.6704" x2="47.9903" y2="31.3667">
		<animate id="animation1"
             attributeName="opacity"
             from="0" to="1" dur="6s"
            begin="2s;anskljdf.end" 
            repeatCount="indefinite"/>
        
			<stop  offset="0" style="stop-color:#5E0000"/>
			<stop  offset="1" style="stop-color:#FF0000"/>
		</linearGradient>
		
		<path fill="url(#SVGID_1_)" d="M48.4,43.7c-1.4,0-2.1-0.7-2.1-2v-2.8l-0.8-1.1l0.8-1v-2.5c0-1.5,0.7-2.2,2.1-2.2h1.6v1.1l-1.6,0
			c-0.5,0-0.7,0.2-0.7,0.7v3.4l-0.5,0.6l0.5,0.7v1.7c0,0.5,0.2,0.7,0.7,0.7l2,0l0,2.7L48.4,43.7z">

			<animate id="animation1"
             attributeName="opacity"
             from="0" to="1" dur="6s"
            begin="2s;anskljdf.end" 
            repeatCount="indefinite"/>
            </path>

	</g>
	<g>
		<linearGradient id="SVGID_2_" gradientUnits="userSpaceOnUse" x1="53.3045" y1="43.6704" x2="53.3045" y2="31.3667">
			
<animate id="animation1"
             attributeName="opacity"
             from="0" to="1" dur="6s"
            begin="2s;anskljdf.end" 
            repeatCount="indefinite"/>
			<stop  offset="0" style="stop-color:#5E0000"/>
			<stop  offset="1" style="stop-color:#FF0000"/>
		</linearGradient>
		
		<path fill="url(#SVGID_2_)" d="M50.8,43.7l0-2.7l2,0c0.5,0,0.7-0.3,0.7-0.7v-1.7l0.5-0.7l-0.5-0.6v-3.4c0-0.4-0.2-0.6-0.7-0.7
			l-1.6,0v-1.1h1.6c1.4,0,2.1,0.7,2.1,2.2v2.5l0.8,1L55,38.9v2.8c0,1.3-0.7,2-2.1,2L50.8,43.7z">

			<animate id="animation1"
             attributeName="opacity"
             from="0" to="1" dur="6s"
            begin="2s;anskljdf.end" 
            repeatCount="indefinite"/>
        </path>
	</g>
	<g>
		<linearGradient id="SVGID_3_" gradientUnits="userSpaceOnUse" x1="50.6673" y1="43.7525" x2="50.6673" y2="31.3696">
			<animate id="animation1"
             attributeName="opacity"
             from="0" to="1" dur="6s"
            begin="2s;anskljdf.end" 
            repeatCount="indefinite"/>

			<stop  offset="0" style="stop-color:#5E0000"/>
			<stop  offset="1" style="stop-color:#FF0000"/>
		</linearGradient>
		
		<rect x="50.5" y="30.8" fill="url(#SVGID_3_)" width="0.3" height="4.3">
		<animate id="animation1"
             attributeName="opacity"
             from="0" to="1" dur="6s"
            begin="2s;anskljdf.end" 
            repeatCount="indefinite"/>
</rect>
		<linearGradient id="SVGID_4_" gradientUnits="userSpaceOnUse" x1="50.7098" y1="43.6283" x2="50.7098" y2="31.3593">
			<animate id="animation1"
             attributeName="opacity"
             from="0" to="1" dur="6s"
            begin="2s;anskljdf.end" 
            repeatCount="indefinite"/>

			<stop  offset="0" style="stop-color:#5E0000"/>
			<stop  offset="1" style="stop-color:#FF0000"/>
		</linearGradient>
		

		<path fill="url(#SVGID_4_)" d="M51.6,36c0,0.3-0.2,0.6-0.6,0.6h-0.7c-0.3,0-0.6-0.2-0.6-0.6v-1.7c0-0.3,0.2-0.6,0.6-0.6H51
			c0.3,0,0.6,0.2,0.6,0.6V36z">

			<animate id="animation1"
             attributeName="opacity"
             from="0" to="1" dur="6s"
            begin="2s;anskljdf.end" 
            repeatCount="indefinite"/>
        </path>
	</g>
</g>
</svg>
