<?xml version="1.0" encoding="iso-8859-1"?>
<!-- Generator: Adobe Illustrator 18.1.1, SVG Export Plug-In . SVG Version: 6.00 Build 0)  -->
<svg version="1.1" id="Capa_1" xmlns="http://www.w3.org/2000/svg" xmlns:xlink="http://www.w3.org/1999/xlink" x="0px" y="0px"
	 viewBox="0 0 23.303 23.303" style="enable-background:new 0 0 23.303 23.303;" xml:space="preserve">
<g>
	<g>
		<path style="fill:#010002;" d="M21.885,1.179H1.419C0.638,1.179,0,1.818,0,2.597v14.715c0,0.778,0.638,1.418,1.419,1.418h20.466
			c0.78,0,1.418-0.64,1.418-1.418V2.597C23.303,1.818,22.665,1.179,21.885,1.179z M21.528,16.269H1.775V3.168h19.753V16.269z"/>
		<polygon style="fill:#010002;" points="9.026,19.403 6.348,22.124 16.994,22.124 14.316,19.403 		"/>
		<path style="fill:#010002;" d="M4.791,13.642c0.523,0,0.949-0.425,0.949-0.948c0-0.095-0.028-0.181-0.054-0.268
			c1.213-0.978,3.356-2.702,4.333-3.455c0.154,0.109,0.333,0.187,0.536,0.187c0.169,0,0.319-0.056,0.456-0.133
			c0.628,0.534,1.696,1.442,2.454,2.087c-0.01,0.055-0.032,0.104-0.032,0.162c0,0.524,0.426,0.949,0.95,0.949s0.95-0.425,0.95-0.949
			c0-0.093-0.028-0.178-0.053-0.263l2.454-2.216c0.132,0.069,0.274,0.118,0.434,0.118c0.524,0,0.949-0.425,0.949-0.949
			s-0.425-0.949-0.949-0.949S17.22,7.44,17.22,7.965c0,0.125,0.027,0.244,0.071,0.353c-0.686,0.619-1.744,1.575-2.404,2.171
			c-0.147-0.095-0.313-0.165-0.503-0.165c-0.224,0-0.42,0.089-0.582,0.218c-0.627-0.533-1.641-1.395-2.362-2.008
			c0.038-0.102,0.065-0.209,0.065-0.325c0-0.524-0.425-0.949-0.949-0.949S9.607,7.685,9.607,8.209c0,0.116,0.028,0.224,0.066,0.326
			l-4.356,3.389c-0.152-0.104-0.327-0.18-0.525-0.18c-0.524,0-0.949,0.425-0.949,0.949C3.842,13.217,4.267,13.642,4.791,13.642z"/>
	</g>
</g>
<g>
</g>
<g>
</g>
<g>
</g>
<g>
</g>
<g>
</g>
<g>
</g>
<g>
</g>
<g>
</g>
<g>
</g>
<g>
</g>
<g>
</g>
<g>
</g>
<g>
</g>
<g>
</g>
<g>
</g>
</svg>
