<?xml version="1.0" encoding="utf-8"?>
<!-- Generator: Adobe Illustrator 18.1.1, SVG Export Plug-In . SVG Version: 6.00 Build 0)  -->
<svg version="1.1" id="Capa_0" xmlns="http://www.w3.org/2000/svg" xmlns:xlink="http://www.w3.org/1999/xlink" x="0px" y="0px"
	 viewBox="0 0 104 104" enable-background="new 0 0 104 104" xml:space="preserve">
<circle id="circulo" fill="none" stroke="#BFBBBB" stroke-miterlimit="10" cx="52.1" cy="52.6" r="50.9"/>
<g>
	<g>
		<path fill="none" stroke="#BCBFC1" stroke-miterlimit="10" d="M53.4,36v28.2c0,0,0.6,4.9,4.8,5c0,0,4.7,1.2,6.9-2.3
			c0,0,4.5-0.2,5.8-5.2c0,0,2.6-1.4,2.1-5.9c0,0,2.5-3.2,0-6.1c0,0,1.5-3.2-1.6-5.6c0,0,0.2-4.2-3.9-5.5c0,0-0.6-3-5.9-3.3
			c0,0-0.8-2.8-4.2-2.7C54.2,32.8,53.8,35.3,53.4,36z"/>
		<path fill="none" stroke="#BCBFC1" stroke-miterlimit="10" d="M54.4,35.9c0,0,2-4,5.7-1.5c0,0,2.5,2.7,0,5.1c0,0-0.5,0.6-2.3,0.9
			c0,0,0.1-1.6-0.7-1.2c0,0-0.3,0.1-0.1,0.5c0,0,0.6,0.9-0.1,2.2c0,0-0.2,0.9,0.5,0.4c0,0,0.5-0.8,0.4-1c0,0,1.7-0.1,3-1.2
			c0,0,1.5-1,1.4-3.9c0,0,3.1-0.4,4.7,3c0,0,3.5,0.7,3.4,4.6c0,0-0.2,4.4-4,5.2c0,0-1.4,0.2-2.3,0c0,0,0.4-1.8,0.3-2.5
			c0,0,1-0.8,1-1.1c0,0-0.1-0.5-0.7-0.2c0,0-0.1,1-2.2,0.4c0,0-0.9,0,0,0.6c0,0,0.5,0.2,0.8,0.2c0,0,0.9,4-3,4.1
			c0,0-4.3-1.5-5.7-7.3V35.9z"/>
		<path fill="none" stroke="#BCBFC1" stroke-miterlimit="10" d="M65.8,55.9c0,0,2.5,1.8,5.3,0.2c0,0,3.9-1.6,0.9-6.2
			c0,0,1.4-3-0.7-4.6c0,0-1.5,5.9-7.8,4.9c0,0-0.8,1-1.6,1.2l1.9,0.2c0,0,1,0.8-0.3,1.2c0,0-5.8-0.1-9.1-5.9v17.2c0,0,1,4.4,5.1,4.4
			c0,0,5,0,5.8-4.4c0,0,0.8-3.2-1.7-5c0,0,0.1-1.2,1-0.7c0,0,3,2.8,1.2,7.2c0,0,2.8-0.1,4.4-4.5c0,0,2.3-1.8,2-4.5
			c0,0-2.4,1.4-4.5,1c0,0-1.9-0.4-2.3-1c0,0-2.5,2.6-5.9,0.7c0,0-0.7,0.9-1.3,0.4c0,0,0.4-0.3,1.2-1.1l-0.1-1.4c0,0,0.7-0.5,0.7,0.3
			l0.1,1.1c0,0,2.9,1.6,5-1.1"/>
	</g>
	<g>
		<path fill="none" stroke="#BCBFC1" stroke-miterlimit="10" d="M52.8,36v28.2c0,0-0.6,4.9-4.8,5c0,0-4.7,1.2-6.9-2.3
			c0,0-4.5-0.2-5.8-5.2c0,0-2.6-1.4-2.1-5.9c0,0-2.5-3.2,0-6.1c0,0-1.5-3.2,1.6-5.6c0,0-0.2-4.2,3.9-5.5c0,0,0.6-3,5.9-3.3
			c0,0,0.8-2.8,4.2-2.7C52.1,32.8,52.5,35.3,52.8,36z"/>
		<path fill="none" stroke="#BCBFC1" stroke-miterlimit="10" d="M51.8,35.9c0,0-2-4-5.7-1.5c0,0-2.5,2.7,0,5.1c0,0,0.5,0.6,2.3,0.9
			c0,0-0.1-1.6,0.7-1.2c0,0,0.3,0.1,0.1,0.5c0,0-0.6,0.9,0.1,2.2c0,0,0.2,0.9-0.5,0.4c0,0-0.5-0.8-0.4-1c0,0-1.7-0.1-3-1.2
			c0,0-1.5-1-1.4-3.9c0,0-3.1-0.4-4.7,3c0,0-3.5,0.7-3.4,4.6c0,0,0.2,4.4,4,5.2c0,0,1.4,0.2,2.3,0c0,0-0.4-1.8-0.3-2.5
			c0,0-1-0.8-1-1.1c0,0,0.1-0.5,0.7-0.2c0,0,0.1,1,2.2,0.4c0,0,0.9,0,0,0.6c0,0-0.5,0.2-0.8,0.2c0,0-0.9,4,3,4.1
			c0,0,4.3-1.5,5.7-7.3V35.9z"/>
		<path fill="none" stroke="#BCBFC1" stroke-miterlimit="10" d="M40.5,55.9c0,0-2.5,1.8-5.3,0.2c0,0-3.9-1.6-0.9-6.2
			c0,0-1.4-3,0.7-4.6c0,0,1.5,5.9,7.8,4.9c0,0,0.8,1,1.6,1.2l-1.9,0.2c0,0-1,0.8,0.3,1.2c0,0,5.8-0.1,9.1-5.9v17.2
			c0,0-1,4.4-5.1,4.4c0,0-5,0-5.8-4.4c0,0-0.8-3.2,1.7-5c0,0-0.1-1.2-1-0.7c0,0-3,2.8-1.2,7.2c0,0-2.8-0.1-4.4-4.5
			c0,0-2.3-1.8-2-4.5c0,0,2.4,1.4,4.5,1c0,0,1.9-0.4,2.3-1c0,0,2.5,2.6,5.9,0.7c0,0,0.7,0.9,1.3,0.4c0,0-0.4-0.3-1.2-1.1l0.1-1.4
			c0,0-0.7-0.5-0.7,0.3L46,56.6c0,0-2.9,1.6-5-1.1"/>
	</g>
</g>
<g>
	<path fill="#8C1414" d="M60.4,70.7H45.9c-0.6,0-1.1,0.4-1.1,0.9v0.6c0,0.5,0.5,0.9,1.1,0.9h14.5c0.6,0,1.1-0.4,1.1-0.9v-0.6
		C61.5,71.1,61,70.7,60.4,70.7z"/>
	<path fill="#8C1414" d="M60.4,74.3H45.9c-0.6,0-1.1,0.4-1.1,0.9v0.6c0,0.5,0.5,0.9,1.1,0.9h14.5c0.6,0,1.1-0.4,1.1-0.9v-0.6
		C61.5,74.7,61,74.3,60.4,74.3z"/>
	<path fill="#8C1414" d="M60.4,77.9H45.9c-0.6,0-1.1,0.4-1.1,0.9v0.6c0,0.5,0.5,0.9,1.1,0.9h14.5c0.6,0,1.1-0.4,1.1-0.9v-0.6
		C61.5,78.3,61,77.9,60.4,77.9z"/>
	<path fill="#8C1414" d="M47.7,81.5h10.9c0,1.8-2.9,3-5.4,3C50.6,84.5,47.7,83.3,47.7,81.5z"/>
</g>

<path id="trazo5" fill="#8C1414" d="M54.5,29.5c0,0.8-0.6,1.4-1.4,1.4l0,0c-0.8,0-1.4-0.6-1.4-1.4V20c0-0.8,0.6-1.4,1.4-1.4l0,0
	c0.8,0,1.4,0.6,1.4,1.4V29.5z">
			         <animate attributeName="fill"  dur="5s" values="darkred;lightgray" repeatCount="indefinite"/>
 <animateTransform attributeType="XML" attributeName="transform"
	  type="translate" values="0,2;0,-2;"
	   dur="1s"	
     repeatCount="indefinite"/>    


 </path>


<path id="trazo3_1_" fill="#8C1414" d="M77.3,54.4c-0.8,0-1.4-0.6-1.4-1.4l0,0c0-0.8,0.6-1.4,1.4-1.4h9.5c0.8,0,1.4,0.6,1.4,1.4l0,0
	c0,0.8-0.6,1.4-1.4,1.4H77.3z">


		         <animate attributeName="fill"  dur="5s" values="darkred;lightgray" repeatCount="indefinite"/>

       <animateTransform attributeType="xml"
 attributeName="transform"
 type="translate"
 from="0"
 to="5"
 dur="1s"
 repeatCount="indefinite"
 fill="freeze"/>
 </path>

<path id="trazo4" fill="#8C1414" d="M19.3,54.4c-0.8,0-1.4-0.6-1.4-1.4l0,0c0-0.8,0.6-1.4,1.4-1.4h9.5c0.8,0,1.4,0.6,1.4,1.4l0,0
	c0,0.8-0.6,1.4-1.4,1.4H19.3z">
	         <animate attributeName="fill"  dur="5s" values="darkred;lightgray" repeatCount="indefinite"/>

       <animateTransform attributeType="xml"
 attributeName="transform"
 type="translate"
 from="0"
 to="-5"
 dur="1s"
 repeatCount="indefinite"
 fill="freeze"/>
</path>
<path id="trazo2" fill="#8C1414" d="M70,35.3c-0.5,0.5-1.4,0.5-1.9,0l0,0c-0.5-0.5-0.5-1.4,0-1.9l6.7-6.7c0.5-0.5,1.4-0.5,1.9,0l0,0
	c0.5,0.5,0.5,1.4,0,1.9L70,35.3z">

	         <animate attributeName="fill"  dur="5s" values="darkred;lightgray" repeatCount="indefinite"/>

       <animateTransform attributeType="xml"
 attributeName="transform"
 type="translate"
 from="0"
 to="4"
 dur="1s"
 repeatCount="indefinite"
 fill="freeze"/>
 </path>
    
<path id="trazo1" fill="#8C1414" d="M36.2,35.3c0.5,0.5,1.4,0.5,1.9,0l0,0c0.5-0.5,0.5-1.4,0-1.9l-6.7-6.7c-0.5-0.5-1.4-0.5-1.9,0
	l0,0c-0.5,0.5-0.5,1.4,0,1.9L36.2,35.3z">
         <animate attributeName="fill"  dur="5s" values="darkred;lightgray" repeatCount="indefinite"/>

       <animateTransform attributeType="xml"
 attributeName="transform"
 type="translate"
 from="0"
 to="-4"
 dur="1s"
 repeatCount="indefinite"
 fill="freeze"/>
    
</path>

 </svg>
